# xmcd
#
# Track frame offsets:
#	182
#	35200
#	75547
#	95607
#	114882
#	132540
#	168755
#	204987
#	236012
#	271732
#	294492
#
# Disc length: 4198 seconds
#
# Revision: 0
# Processed by: cddbd v1.5.2PL0 Copyright (c) Steve Scherf et al.
# Submitted via: audiograbber 1.83.01
#
DISCID=9210640b
DTITLE=MS® - Jugo De Hits 9.5
DYEAR=1995
DGENRE=Pop
TTITLE0=Bronsky Beat - Why? (Full 12" Version)
TTITLE1=Soft Cell - Tainted Love (12" Version)
TTITLE2=Joe Jackson - Steppin' Out
TTITLE3=Opus - Live Is Life
TTITLE4=Big Country - In A Big Country
TTITLE5=Al Corley - Square Rooms (Remix)
TTITLE6=Level 42 - Something About You
TTITLE7=Swing Out Sister - Breakout (Remix)
TTITLE8=Bananarama - Venus (Remix)
TTITLE9=Shakatak - Night Birds
TTITLE10=Ollie and Jerry - Breakin'... There's No Stoppin' Us
EXTD=MS®
EXTT0=MS®
EXTT1=
EXTT2=
EXTT3=
EXTT4=
EXTT5=
EXTT6=
EXTT7=
EXTT8=
EXTT9=
EXTT10=
PLAYORDER=
